<mxfile host="app.diagrams.net" modified="2024-06-06T08:50:07.515Z" agent="Mozilla/5.0 (Windows NT 10.0; Win64; x64) AppleWebKit/537.36 (KHTML, like Gecko) Chrome/125.0.0.0 Safari/537.36" etag="OMwH3EOxDLYfWhrtwdwZ" version="24.4.14" type="device">
  <diagram name="ページ1" id="dh2QZhzZqzziUDRQoIfL">
    <mxGraphModel dx="3695" dy="1560" grid="1" gridSize="10" guides="1" tooltips="1" connect="1" arrows="1" fold="1" page="1" pageScale="1" pageWidth="827" pageHeight="1169" math="0" shadow="0">
      <root>
        <mxCell id="0" />
        <mxCell id="1" parent="0" />
        <mxCell id="YVsaJTLRSC4F98zlZ3vZ-1" value="" style="rounded=0;whiteSpace=wrap;html=1;movable=1;resizable=1;rotatable=1;deletable=1;editable=1;locked=0;connectable=1;" parent="1" vertex="1">
          <mxGeometry width="840" height="600" as="geometry" />
        </mxCell>
        <mxCell id="YVsaJTLRSC4F98zlZ3vZ-2" value="" style="rounded=0;whiteSpace=wrap;html=1;movable=1;resizable=1;rotatable=1;deletable=1;editable=1;locked=0;connectable=1;" parent="1" vertex="1">
          <mxGeometry width="840" height="150" as="geometry" />
        </mxCell>
        <mxCell id="YVsaJTLRSC4F98zlZ3vZ-3" value="ロゴ" style="rounded=0;whiteSpace=wrap;html=1;movable=1;resizable=1;rotatable=1;deletable=1;editable=1;locked=0;connectable=1;" parent="1" vertex="1">
          <mxGeometry width="450" height="150" as="geometry" />
        </mxCell>
        <mxCell id="YVsaJTLRSC4F98zlZ3vZ-4" value="設定" style="rounded=0;whiteSpace=wrap;html=1;movable=1;resizable=1;rotatable=1;deletable=1;editable=1;locked=0;connectable=1;" parent="1" vertex="1">
          <mxGeometry x="580" width="130" height="150" as="geometry" />
        </mxCell>
        <mxCell id="YVsaJTLRSC4F98zlZ3vZ-5" value="カレンダー" style="rounded=0;whiteSpace=wrap;html=1;movable=1;resizable=1;rotatable=1;deletable=1;editable=1;locked=0;connectable=1;" parent="1" vertex="1">
          <mxGeometry x="450" width="130" height="150" as="geometry" />
        </mxCell>
        <mxCell id="YVsaJTLRSC4F98zlZ3vZ-6" value="アカウント" style="rounded=0;whiteSpace=wrap;html=1;movable=1;resizable=1;rotatable=1;deletable=1;editable=1;locked=0;connectable=1;" parent="1" vertex="1">
          <mxGeometry x="710" width="130" height="150" as="geometry" />
        </mxCell>
        <mxCell id="YVsaJTLRSC4F98zlZ3vZ-7" value="&lt;div&gt;&lt;span style=&quot;background-color: initial;&quot;&gt;計測ボタン&lt;/span&gt;&lt;br&gt;&lt;/div&gt;" style="rounded=0;whiteSpace=wrap;html=1;movable=1;resizable=1;rotatable=1;deletable=1;editable=1;locked=0;connectable=1;" parent="1" vertex="1">
          <mxGeometry x="710" y="340" width="90" height="120" as="geometry" />
        </mxCell>
        <mxCell id="YVsaJTLRSC4F98zlZ3vZ-8" value="大会名、何回、分野、問題形式のぼたん" style="rounded=0;whiteSpace=wrap;html=1;movable=1;resizable=1;rotatable=1;deletable=1;editable=1;locked=0;connectable=1;" parent="1" vertex="1">
          <mxGeometry x="40" y="190" width="590" height="270" as="geometry" />
        </mxCell>
        <mxCell id="YVsaJTLRSC4F98zlZ3vZ-10" value="学習開始のボタン" style="rounded=0;whiteSpace=wrap;html=1;movable=1;resizable=1;rotatable=1;deletable=1;editable=1;locked=0;connectable=1;" parent="1" vertex="1">
          <mxGeometry x="245" y="500" width="180" height="60" as="geometry" />
        </mxCell>
        <mxCell id="YVsaJTLRSC4F98zlZ3vZ-22" value="" style="endArrow=none;html=1;rounded=0;" parent="1" source="YVsaJTLRSC4F98zlZ3vZ-24" target="YVsaJTLRSC4F98zlZ3vZ-10" edge="1">
          <mxGeometry width="50" height="50" relative="1" as="geometry">
            <mxPoint x="410" y="680" as="sourcePoint" />
            <mxPoint x="350" y="560" as="targetPoint" />
          </mxGeometry>
        </mxCell>
        <mxCell id="YVsaJTLRSC4F98zlZ3vZ-24" value="" style="rounded=0;whiteSpace=wrap;html=1;" parent="1" vertex="1">
          <mxGeometry y="680" width="840" height="600" as="geometry" />
        </mxCell>
        <mxCell id="YVsaJTLRSC4F98zlZ3vZ-26" value="問題、解答欄" style="rounded=0;whiteSpace=wrap;html=1;" parent="1" vertex="1">
          <mxGeometry x="40" y="860" width="620" height="310" as="geometry" />
        </mxCell>
        <mxCell id="YVsaJTLRSC4F98zlZ3vZ-27" value="" style="rounded=0;whiteSpace=wrap;html=1;" parent="1" vertex="1">
          <mxGeometry y="1360" width="840" height="600" as="geometry" />
        </mxCell>
        <mxCell id="YVsaJTLRSC4F98zlZ3vZ-30" value="次の問題" style="rounded=0;whiteSpace=wrap;html=1;" parent="1" vertex="1">
          <mxGeometry x="354" y="1850" width="120" height="60" as="geometry" />
        </mxCell>
        <mxCell id="YVsaJTLRSC4F98zlZ3vZ-31" value="次の問題" style="rounded=0;whiteSpace=wrap;html=1;" parent="1" vertex="1">
          <mxGeometry x="680" y="1180" width="120" height="60" as="geometry" />
        </mxCell>
        <mxCell id="YVsaJTLRSC4F98zlZ3vZ-32" value="解説" style="rounded=0;whiteSpace=wrap;html=1;" parent="1" vertex="1">
          <mxGeometry x="40" y="1550" width="760" height="270" as="geometry" />
        </mxCell>
        <mxCell id="YVsaJTLRSC4F98zlZ3vZ-33" value="" style="endArrow=classic;html=1;rounded=0;entryX=0.5;entryY=0;entryDx=0;entryDy=0;" parent="1" source="YVsaJTLRSC4F98zlZ3vZ-27" target="YVsaJTLRSC4F98zlZ3vZ-34" edge="1">
          <mxGeometry width="50" height="50" relative="1" as="geometry">
            <mxPoint x="389" y="2030" as="sourcePoint" />
            <mxPoint x="439" y="1980" as="targetPoint" />
          </mxGeometry>
        </mxCell>
        <mxCell id="YVsaJTLRSC4F98zlZ3vZ-36" value="問題を出し切ったら遷移" style="edgeLabel;html=1;align=center;verticalAlign=middle;resizable=0;points=[];" parent="YVsaJTLRSC4F98zlZ3vZ-33" vertex="1" connectable="0">
          <mxGeometry x="-0.0513" y="-3" relative="1" as="geometry">
            <mxPoint as="offset" />
          </mxGeometry>
        </mxCell>
        <mxCell id="YVsaJTLRSC4F98zlZ3vZ-34" value="" style="rounded=0;whiteSpace=wrap;html=1;" parent="1" vertex="1">
          <mxGeometry y="2040" width="840" height="600" as="geometry" />
        </mxCell>
        <mxCell id="YVsaJTLRSC4F98zlZ3vZ-37" value="" style="rounded=0;whiteSpace=wrap;html=1;movable=1;resizable=1;rotatable=1;deletable=1;editable=1;locked=0;connectable=1;" parent="1" vertex="1">
          <mxGeometry y="2040" width="840" height="150" as="geometry" />
        </mxCell>
        <mxCell id="YVsaJTLRSC4F98zlZ3vZ-38" value="ロゴ" style="rounded=0;whiteSpace=wrap;html=1;movable=1;resizable=1;rotatable=1;deletable=1;editable=1;locked=0;connectable=1;" parent="1" vertex="1">
          <mxGeometry y="2040" width="450" height="150" as="geometry" />
        </mxCell>
        <mxCell id="YVsaJTLRSC4F98zlZ3vZ-39" value="設定" style="rounded=0;whiteSpace=wrap;html=1;movable=1;resizable=1;rotatable=1;deletable=1;editable=1;locked=0;connectable=1;" parent="1" vertex="1">
          <mxGeometry x="580" y="2040" width="130" height="150" as="geometry" />
        </mxCell>
        <mxCell id="YVsaJTLRSC4F98zlZ3vZ-40" value="カレンダー" style="rounded=0;whiteSpace=wrap;html=1;movable=1;resizable=1;rotatable=1;deletable=1;editable=1;locked=0;connectable=1;" parent="1" vertex="1">
          <mxGeometry x="450" y="2040" width="130" height="150" as="geometry" />
        </mxCell>
        <mxCell id="YVsaJTLRSC4F98zlZ3vZ-41" value="アカウント" style="rounded=0;whiteSpace=wrap;html=1;movable=1;resizable=1;rotatable=1;deletable=1;editable=1;locked=0;connectable=1;" parent="1" vertex="1">
          <mxGeometry x="710" y="2040" width="130" height="150" as="geometry" />
        </mxCell>
        <mxCell id="YVsaJTLRSC4F98zlZ3vZ-42" value="" style="rounded=0;whiteSpace=wrap;html=1;movable=1;resizable=1;rotatable=1;deletable=1;editable=1;locked=0;connectable=1;" parent="1" vertex="1">
          <mxGeometry y="1360" width="840" height="150" as="geometry" />
        </mxCell>
        <mxCell id="YVsaJTLRSC4F98zlZ3vZ-43" value="ロゴ" style="rounded=0;whiteSpace=wrap;html=1;movable=1;resizable=1;rotatable=1;deletable=1;editable=1;locked=0;connectable=1;" parent="1" vertex="1">
          <mxGeometry y="1360" width="450" height="150" as="geometry" />
        </mxCell>
        <mxCell id="YVsaJTLRSC4F98zlZ3vZ-44" value="設定" style="rounded=0;whiteSpace=wrap;html=1;movable=1;resizable=1;rotatable=1;deletable=1;editable=1;locked=0;connectable=1;" parent="1" vertex="1">
          <mxGeometry x="580" y="1360" width="130" height="150" as="geometry" />
        </mxCell>
        <mxCell id="YVsaJTLRSC4F98zlZ3vZ-45" value="カレンダー" style="rounded=0;whiteSpace=wrap;html=1;movable=1;resizable=1;rotatable=1;deletable=1;editable=1;locked=0;connectable=1;" parent="1" vertex="1">
          <mxGeometry x="450" y="1360" width="130" height="150" as="geometry" />
        </mxCell>
        <mxCell id="YVsaJTLRSC4F98zlZ3vZ-46" value="アカウント" style="rounded=0;whiteSpace=wrap;html=1;movable=1;resizable=1;rotatable=1;deletable=1;editable=1;locked=0;connectable=1;" parent="1" vertex="1">
          <mxGeometry x="710" y="1360" width="130" height="150" as="geometry" />
        </mxCell>
        <mxCell id="YVsaJTLRSC4F98zlZ3vZ-47" value="" style="rounded=0;whiteSpace=wrap;html=1;movable=1;resizable=1;rotatable=1;deletable=1;editable=1;locked=0;connectable=1;" parent="1" vertex="1">
          <mxGeometry y="680" width="840" height="150" as="geometry" />
        </mxCell>
        <mxCell id="YVsaJTLRSC4F98zlZ3vZ-48" value="ロゴ" style="rounded=0;whiteSpace=wrap;html=1;movable=1;resizable=1;rotatable=1;deletable=1;editable=1;locked=0;connectable=1;" parent="1" vertex="1">
          <mxGeometry y="680" width="450" height="150" as="geometry" />
        </mxCell>
        <mxCell id="YVsaJTLRSC4F98zlZ3vZ-49" value="設定" style="rounded=0;whiteSpace=wrap;html=1;movable=1;resizable=1;rotatable=1;deletable=1;editable=1;locked=0;connectable=1;" parent="1" vertex="1">
          <mxGeometry x="580" y="680" width="130" height="150" as="geometry" />
        </mxCell>
        <mxCell id="YVsaJTLRSC4F98zlZ3vZ-50" value="カレンダー" style="rounded=0;whiteSpace=wrap;html=1;movable=1;resizable=1;rotatable=1;deletable=1;editable=1;locked=0;connectable=1;" parent="1" vertex="1">
          <mxGeometry x="450" y="680" width="130" height="150" as="geometry" />
        </mxCell>
        <mxCell id="YVsaJTLRSC4F98zlZ3vZ-51" value="アカウント" style="rounded=0;whiteSpace=wrap;html=1;movable=1;resizable=1;rotatable=1;deletable=1;editable=1;locked=0;connectable=1;" parent="1" vertex="1">
          <mxGeometry x="710" y="680" width="130" height="150" as="geometry" />
        </mxCell>
        <mxCell id="YVsaJTLRSC4F98zlZ3vZ-56" value="" style="endArrow=none;html=1;rounded=0;exitX=1;exitY=0.5;exitDx=0;exitDy=0;" parent="1" edge="1">
          <mxGeometry width="50" height="50" relative="1" as="geometry">
            <mxPoint x="800" y="1210" as="sourcePoint" />
            <mxPoint x="880" y="1110" as="targetPoint" />
            <Array as="points">
              <mxPoint x="880" y="1210" />
              <mxPoint x="880" y="1090" />
            </Array>
          </mxGeometry>
        </mxCell>
        <mxCell id="YVsaJTLRSC4F98zlZ3vZ-57" value="" style="endArrow=classic;html=1;rounded=0;" parent="1" edge="1">
          <mxGeometry width="50" height="50" relative="1" as="geometry">
            <mxPoint x="880" y="1090" as="sourcePoint" />
            <mxPoint x="840" y="1090" as="targetPoint" />
            <Array as="points">
              <mxPoint x="860" y="1090" />
            </Array>
          </mxGeometry>
        </mxCell>
        <mxCell id="YVsaJTLRSC4F98zlZ3vZ-58" value="成績" style="rounded=0;whiteSpace=wrap;html=1;" parent="1" vertex="1">
          <mxGeometry x="40" y="2240" width="750" height="180" as="geometry" />
        </mxCell>
        <mxCell id="YVsaJTLRSC4F98zlZ3vZ-60" value="タイトルへ" style="rounded=0;whiteSpace=wrap;html=1;" parent="1" vertex="1">
          <mxGeometry x="324" y="2490" width="180" height="60" as="geometry" />
        </mxCell>
        <mxCell id="YVsaJTLRSC4F98zlZ3vZ-62" value="" style="endArrow=none;html=1;rounded=0;exitX=1;exitY=0.5;exitDx=0;exitDy=0;" parent="1" source="YVsaJTLRSC4F98zlZ3vZ-60" edge="1">
          <mxGeometry width="50" height="50" relative="1" as="geometry">
            <mxPoint x="600" y="2570" as="sourcePoint" />
            <mxPoint x="960" y="480" as="targetPoint" />
            <Array as="points">
              <mxPoint x="960" y="2520" />
            </Array>
          </mxGeometry>
        </mxCell>
        <mxCell id="YVsaJTLRSC4F98zlZ3vZ-63" value="" style="endArrow=classic;html=1;rounded=0;entryX=1;entryY=0.8;entryDx=0;entryDy=0;entryPerimeter=0;" parent="1" target="YVsaJTLRSC4F98zlZ3vZ-1" edge="1">
          <mxGeometry width="50" height="50" relative="1" as="geometry">
            <mxPoint x="960" y="480" as="sourcePoint" />
            <mxPoint x="910" y="410" as="targetPoint" />
          </mxGeometry>
        </mxCell>
        <mxCell id="YVsaJTLRSC4F98zlZ3vZ-64" value="" style="endArrow=classic;html=1;rounded=0;exitX=0.995;exitY=0.482;exitDx=0;exitDy=0;exitPerimeter=0;" parent="1" source="YVsaJTLRSC4F98zlZ3vZ-7" edge="1">
          <mxGeometry width="50" height="50" relative="1" as="geometry">
            <mxPoint x="880" y="340" as="sourcePoint" />
            <mxPoint x="1030" y="320" as="targetPoint" />
          </mxGeometry>
        </mxCell>
        <mxCell id="YVsaJTLRSC4F98zlZ3vZ-65" value="" style="rounded=0;whiteSpace=wrap;html=1;movable=1;resizable=1;rotatable=1;deletable=1;editable=1;locked=0;connectable=1;" parent="1" vertex="1">
          <mxGeometry x="1030" width="840" height="600" as="geometry" />
        </mxCell>
        <mxCell id="YVsaJTLRSC4F98zlZ3vZ-66" value="" style="rounded=0;whiteSpace=wrap;html=1;movable=1;resizable=1;rotatable=1;deletable=1;editable=1;locked=0;connectable=1;" parent="1" vertex="1">
          <mxGeometry x="1030" width="840" height="150" as="geometry" />
        </mxCell>
        <mxCell id="YVsaJTLRSC4F98zlZ3vZ-67" value="ロゴ" style="rounded=0;whiteSpace=wrap;html=1;movable=1;resizable=1;rotatable=1;deletable=1;editable=1;locked=0;connectable=1;" parent="1" vertex="1">
          <mxGeometry x="1030" width="450" height="150" as="geometry" />
        </mxCell>
        <mxCell id="YVsaJTLRSC4F98zlZ3vZ-68" value="設定" style="rounded=0;whiteSpace=wrap;html=1;movable=1;resizable=1;rotatable=1;deletable=1;editable=1;locked=0;connectable=1;" parent="1" vertex="1">
          <mxGeometry x="1610" width="130" height="150" as="geometry" />
        </mxCell>
        <mxCell id="YVsaJTLRSC4F98zlZ3vZ-69" value="カレンダー" style="rounded=0;whiteSpace=wrap;html=1;movable=1;resizable=1;rotatable=1;deletable=1;editable=1;locked=0;connectable=1;" parent="1" vertex="1">
          <mxGeometry x="1480" width="130" height="150" as="geometry" />
        </mxCell>
        <mxCell id="YVsaJTLRSC4F98zlZ3vZ-70" value="アカウント" style="rounded=0;whiteSpace=wrap;html=1;movable=1;resizable=1;rotatable=1;deletable=1;editable=1;locked=0;connectable=1;" parent="1" vertex="1">
          <mxGeometry x="1740" width="130" height="150" as="geometry" />
        </mxCell>
        <mxCell id="YVsaJTLRSC4F98zlZ3vZ-72" value="大会名、何回のぼたん&lt;div&gt;PDFを選べるよ&lt;/div&gt;" style="rounded=0;whiteSpace=wrap;html=1;movable=1;resizable=1;rotatable=1;deletable=1;editable=1;locked=0;connectable=1;" parent="1" vertex="1">
          <mxGeometry x="1070" y="190" width="760" height="270" as="geometry" />
        </mxCell>
        <mxCell id="YVsaJTLRSC4F98zlZ3vZ-74" value="" style="rounded=0;whiteSpace=wrap;html=1;" parent="1" vertex="1">
          <mxGeometry x="1030" y="680" width="840" height="600" as="geometry" />
        </mxCell>
        <mxCell id="YVsaJTLRSC4F98zlZ3vZ-75" value="" style="rounded=0;whiteSpace=wrap;html=1;movable=1;resizable=1;rotatable=1;deletable=1;editable=1;locked=0;connectable=1;" parent="1" vertex="1">
          <mxGeometry x="1030" y="680" width="840" height="150" as="geometry" />
        </mxCell>
        <mxCell id="YVsaJTLRSC4F98zlZ3vZ-76" value="ロゴ" style="rounded=0;whiteSpace=wrap;html=1;movable=1;resizable=1;rotatable=1;deletable=1;editable=1;locked=0;connectable=1;" parent="1" vertex="1">
          <mxGeometry x="1030" y="680" width="450" height="150" as="geometry" />
        </mxCell>
        <mxCell id="YVsaJTLRSC4F98zlZ3vZ-77" value="設定" style="rounded=0;whiteSpace=wrap;html=1;movable=1;resizable=1;rotatable=1;deletable=1;editable=1;locked=0;connectable=1;" parent="1" vertex="1">
          <mxGeometry x="1610" y="680" width="130" height="150" as="geometry" />
        </mxCell>
        <mxCell id="YVsaJTLRSC4F98zlZ3vZ-78" value="カレンダー" style="rounded=0;whiteSpace=wrap;html=1;movable=1;resizable=1;rotatable=1;deletable=1;editable=1;locked=0;connectable=1;" parent="1" vertex="1">
          <mxGeometry x="1480" y="680" width="130" height="150" as="geometry" />
        </mxCell>
        <mxCell id="YVsaJTLRSC4F98zlZ3vZ-79" value="アカウント" style="rounded=0;whiteSpace=wrap;html=1;movable=1;resizable=1;rotatable=1;deletable=1;editable=1;locked=0;connectable=1;" parent="1" vertex="1">
          <mxGeometry x="1740" y="680" width="130" height="150" as="geometry" />
        </mxCell>
        <mxCell id="YVsaJTLRSC4F98zlZ3vZ-80" value="" style="endArrow=classic;html=1;rounded=0;exitX=0.5;exitY=1;exitDx=0;exitDy=0;entryX=0;entryY=0.333;entryDx=0;entryDy=0;entryPerimeter=0;" parent="1" source="YVsaJTLRSC4F98zlZ3vZ-5" target="YVsaJTLRSC4F98zlZ3vZ-74" edge="1">
          <mxGeometry width="50" height="50" relative="1" as="geometry">
            <mxPoint x="650" y="200" as="sourcePoint" />
            <mxPoint x="700" y="150" as="targetPoint" />
            <Array as="points">
              <mxPoint x="950" y="190" />
            </Array>
          </mxGeometry>
        </mxCell>
        <mxCell id="YVsaJTLRSC4F98zlZ3vZ-81" value="カレンダー" style="rounded=0;whiteSpace=wrap;html=1;" parent="1" vertex="1">
          <mxGeometry x="1080" y="860" width="700" height="310" as="geometry" />
        </mxCell>
        <mxCell id="YVsaJTLRSC4F98zlZ3vZ-82" value="カレンダーの作成" style="rounded=0;whiteSpace=wrap;html=1;" parent="1" vertex="1">
          <mxGeometry x="1340" y="1190" width="180" height="60" as="geometry" />
        </mxCell>
        <mxCell id="AlAXAshSMv7GXRYsCewH-1" value="" style="endArrow=classic;html=1;rounded=0;exitX=0.25;exitY=1;exitDx=0;exitDy=0;entryX=0.044;entryY=0.2;entryDx=0;entryDy=0;entryPerimeter=0;" parent="1" source="YVsaJTLRSC4F98zlZ3vZ-24" target="YVsaJTLRSC4F98zlZ3vZ-38" edge="1">
          <mxGeometry width="50" height="50" relative="1" as="geometry">
            <mxPoint x="-100" y="1320" as="sourcePoint" />
            <mxPoint x="-50" y="1270" as="targetPoint" />
            <Array as="points">
              <mxPoint x="-80" y="1280" />
              <mxPoint x="-80" y="2070" />
            </Array>
          </mxGeometry>
        </mxCell>
        <mxCell id="AlAXAshSMv7GXRYsCewH-2" value="問題を出し切ったら" style="edgeLabel;html=1;align=center;verticalAlign=middle;resizable=0;points=[];" parent="AlAXAshSMv7GXRYsCewH-1" vertex="1" connectable="0">
          <mxGeometry x="0.1546" relative="1" as="geometry">
            <mxPoint as="offset" />
          </mxGeometry>
        </mxCell>
        <mxCell id="AlAXAshSMv7GXRYsCewH-3" value="" style="endArrow=classic;html=1;rounded=0;exitX=1;exitY=0.75;exitDx=0;exitDy=0;entryX=1.001;entryY=0.528;entryDx=0;entryDy=0;entryPerimeter=0;" parent="1" source="YVsaJTLRSC4F98zlZ3vZ-30" target="YVsaJTLRSC4F98zlZ3vZ-24" edge="1">
          <mxGeometry width="50" height="50" relative="1" as="geometry">
            <mxPoint x="660" y="1930" as="sourcePoint" />
            <mxPoint x="890" y="1000" as="targetPoint" />
            <Array as="points">
              <mxPoint x="900" y="1895" />
              <mxPoint x="890" y="997" />
            </Array>
          </mxGeometry>
        </mxCell>
        <mxCell id="u0NW_Edgaun57FOAjR7u-2" value="" style="endArrow=classic;html=1;rounded=0;exitX=0.56;exitY=1;exitDx=0;exitDy=0;exitPerimeter=0;entryX=1;entryY=0;entryDx=0;entryDy=0;" edge="1" parent="1" source="YVsaJTLRSC4F98zlZ3vZ-26" target="YVsaJTLRSC4F98zlZ3vZ-43">
          <mxGeometry width="50" height="50" relative="1" as="geometry">
            <mxPoint x="390" y="1270" as="sourcePoint" />
            <mxPoint x="440" y="1220" as="targetPoint" />
          </mxGeometry>
        </mxCell>
        <mxCell id="u0NW_Edgaun57FOAjR7u-3" value="答えたらページの下に" style="edgeLabel;html=1;align=center;verticalAlign=middle;resizable=0;points=[];" vertex="1" connectable="0" parent="u0NW_Edgaun57FOAjR7u-2">
          <mxGeometry x="0.3647" y="2" relative="1" as="geometry">
            <mxPoint as="offset" />
          </mxGeometry>
        </mxCell>
        <mxCell id="u0NW_Edgaun57FOAjR7u-4" value="" style="rounded=0;whiteSpace=wrap;html=1;movable=1;resizable=1;rotatable=1;deletable=1;editable=1;locked=0;connectable=1;" vertex="1" parent="1">
          <mxGeometry x="1030" y="1330" width="840" height="600" as="geometry" />
        </mxCell>
        <mxCell id="u0NW_Edgaun57FOAjR7u-5" value="" style="rounded=0;whiteSpace=wrap;html=1;movable=1;resizable=1;rotatable=1;deletable=1;editable=1;locked=0;connectable=1;" vertex="1" parent="1">
          <mxGeometry x="1030" y="1330" width="840" height="150" as="geometry" />
        </mxCell>
        <mxCell id="u0NW_Edgaun57FOAjR7u-6" value="ロゴ" style="rounded=0;whiteSpace=wrap;html=1;movable=1;resizable=1;rotatable=1;deletable=1;editable=1;locked=0;connectable=1;" vertex="1" parent="1">
          <mxGeometry x="1030" y="1330" width="450" height="150" as="geometry" />
        </mxCell>
        <mxCell id="u0NW_Edgaun57FOAjR7u-7" value="設定" style="rounded=0;whiteSpace=wrap;html=1;movable=1;resizable=1;rotatable=1;deletable=1;editable=1;locked=0;connectable=1;" vertex="1" parent="1">
          <mxGeometry x="1610" y="1330" width="130" height="150" as="geometry" />
        </mxCell>
        <mxCell id="u0NW_Edgaun57FOAjR7u-8" value="カレンダー" style="rounded=0;whiteSpace=wrap;html=1;movable=1;resizable=1;rotatable=1;deletable=1;editable=1;locked=0;connectable=1;" vertex="1" parent="1">
          <mxGeometry x="1480" y="1330" width="130" height="150" as="geometry" />
        </mxCell>
        <mxCell id="u0NW_Edgaun57FOAjR7u-9" value="アカウント" style="rounded=0;whiteSpace=wrap;html=1;movable=1;resizable=1;rotatable=1;deletable=1;editable=1;locked=0;connectable=1;" vertex="1" parent="1">
          <mxGeometry x="1740" y="1330" width="130" height="150" as="geometry" />
        </mxCell>
        <mxCell id="u0NW_Edgaun57FOAjR7u-10" value="&lt;div&gt;用語計算&lt;/div&gt;&lt;div&gt;データベース&lt;/div&gt;&lt;div&gt;表計算&lt;/div&gt;&lt;div&gt;アルゴリズム&lt;/div&gt;" style="rounded=0;whiteSpace=wrap;html=1;movable=1;resizable=1;rotatable=1;deletable=1;editable=1;locked=0;connectable=1;" vertex="1" parent="1">
          <mxGeometry x="710" y="190" width="90" height="120" as="geometry" />
        </mxCell>
        <mxCell id="u0NW_Edgaun57FOAjR7u-11" value="" style="endArrow=classic;html=1;rounded=0;exitX=1;exitY=0.5;exitDx=0;exitDy=0;entryX=0;entryY=0.5;entryDx=0;entryDy=0;" edge="1" parent="1" source="u0NW_Edgaun57FOAjR7u-10" target="u0NW_Edgaun57FOAjR7u-4">
          <mxGeometry width="50" height="50" relative="1" as="geometry">
            <mxPoint x="910" y="280" as="sourcePoint" />
            <mxPoint x="1000" y="1520" as="targetPoint" />
          </mxGeometry>
        </mxCell>
        <mxCell id="u0NW_Edgaun57FOAjR7u-12" value="問題一覧" style="rounded=0;whiteSpace=wrap;html=1;" vertex="1" parent="1">
          <mxGeometry x="1080" y="1570" width="680" height="300" as="geometry" />
        </mxCell>
        <mxCell id="u0NW_Edgaun57FOAjR7u-13" value="問題の追加" style="rounded=0;whiteSpace=wrap;html=1;" vertex="1" parent="1">
          <mxGeometry x="1710" y="1510" width="120" height="40" as="geometry" />
        </mxCell>
      </root>
    </mxGraphModel>
  </diagram>
</mxfile>
